<svg xmlns="http://www.w3.org/2000/svg" xmlns:xlink="http://www.w3.org/1999/xlink" version="1.1" x="0px" y="0px" viewBox="0 0 100 125" enable-background="new 0 0 100 100" xml:space="preserve"><g><path d="M81.65,30.247c-0.021-0.416-0.359-0.75-0.781-0.75h-5.951c-0.422,0-0.761,0.334-0.783,0.75H48.707l0,0   c-4.419,0-8.554,1.166-12.102,3.189l-0.483-2.306l0.129-0.027c0.428-0.09,0.702-0.509,0.612-0.937l-1.217-5.824   c-0.089-0.427-0.508-0.701-0.936-0.612l-0.129,0.027l-15.61,3.264l-0.039,0.009l0.001,0.007c-0.404,0.107-0.661,0.507-0.575,0.921   l1.218,5.824c0.086,0.413,0.482,0.676,0.895,0.612l4.661,22.293c1.711,11.092,11.613,19.6,23.575,19.6   c13.166,0,23.839-10.306,23.839-23.02c0-2.453-0.401-4.815-1.137-7.033h2.718v0.132c0,0.438,0.354,0.791,0.791,0.791h5.951   c0.436,0,0.79-0.354,0.79-0.791v-0.132V30.288v-0.041H81.65z M62.332,33.892c0.01,0.006,0.021,0.013,0.033,0.019h-0.033V33.892z    M22.698,36.811l1.937-0.405l1.148,5.494c-0.568,1.094-1.006,2.263-1.292,3.484L22.698,36.811z M48.82,65.966   c-7.013,0-12.698-5.685-12.698-12.698c0-7.013,5.686-12.7,12.698-12.7c7.014,0,12.699,5.687,12.699,12.7   C61.52,60.281,55.834,65.966,48.82,65.966z M48.068,34.893c-11.308,1.196-19.504,11.334-18.308,22.642   c0.461,4.353,2.25,8.24,4.917,11.313c-3.728-3.289-6.284-7.931-6.849-13.266c-1.197-11.309,7-21.445,18.308-22.643   c6.955-0.735,13.464,2.086,17.727,6.995C59.688,36.25,54.043,34.26,48.068,34.893z M71.314,33.911H65.7   c-0.953-0.779-2.009-1.447-3.146-1.978h8.76V33.911z"/><path d="M50.129,50.991l0.604-7.345H46.91l0.603,7.345c-0.403,0.233-0.736,0.566-0.969,0.969l-7.345-0.604v3.822l7.345-0.604   c0.232,0.403,0.565,0.736,0.969,0.969L46.91,62.89h3.822l-0.604-7.346c0.402-0.232,0.736-0.565,0.969-0.969l7.344,0.604v-3.822   l-7.344,0.604C50.865,51.557,50.531,51.224,50.129,50.991z"/></g></svg>
